<svg width="246" height="141" viewBox="0 0 246 141" version="1.1" xmlns="http://www.w3.org/2000/svg" xmlns:xlink="http://www.w3.org/1999/xlink">
<title>principal</title>
<desc>Created using Figma</desc>
<g id="Canvas" transform="matrix(0.5 0 0 0.5 103 87.5)">
<g id="principal">
<g id="Subtract">
<use xlink:href="#path0_fill" transform="translate(-205.242 -174.843)" fill="#FFFFFF"/>
</g>
<g id="Vector">
<use xlink:href="#path1_fill" transform="translate(75.038 -34.4547)" fill="#FFFFFF"/>
<use xlink:href="#path2_fill" transform="translate(75.038 -34.4547)" fill="#FFFFFF"/>
</g>
</g>
</g>
<defs>
<path id="path0_fill" fill-rule="evenodd" d="M 318.702 0L 299.823 21.5348L 308.863 29.6415L 330.795 11.1694L 318.702 0ZM 86.8574 11.9429L 86.8574 32.0646L 55.2375 32.0646L 55.2375 116.788L 31.6361 116.788L 31.6361 32.0646L 0.0162811 32.0646L 0.0162811 11.9429L 86.8574 11.9429ZM 148.985 76.8467C 148.985 83.1001 148.078 88.8491 146.262 94.0939C 144.447 99.2378 141.824 103.676 138.395 107.408C 134.966 111.038 130.83 113.863 125.989 115.88C 121.249 117.897 115.903 118.906 109.952 118.906C 104.102 118.906 98.7567 117.897 93.9153 115.88C 89.1749 113.863 85.09 111.038 81.6608 107.408C 78.2315 103.676 75.5587 99.2378 73.6423 94.0939C 71.726 88.8491 70.7678 83.1001 70.7678 76.8467C 70.7678 70.5933 71.726 64.8948 73.6423 59.751C 75.6595 54.607 78.3828 50.2195 81.812 46.5886C 85.3422 42.9576 89.4775 40.1335 94.2179 38.1162C 99.0592 36.0991 104.304 35.0905 109.952 35.0905C 115.701 35.0905 120.946 36.0991 125.686 38.1162C 130.528 40.1335 134.663 42.9576 138.092 46.5886C 141.522 50.2195 144.194 54.607 146.111 59.751C 148.027 64.8948 148.985 70.5933 148.985 76.8467ZM 125.989 76.8467C 125.989 69.8874 124.577 64.441 121.753 60.5074C 119.03 56.473 115.096 54.4558 109.952 54.4558C 104.808 54.4558 100.824 56.473 98.0002 60.5074C 95.1761 64.441 93.7641 69.8874 93.7641 76.8467C 93.7641 83.8061 95.1761 89.3534 98.0002 93.4887C 100.824 97.5232 104.808 99.5405 109.952 99.5405C 115.096 99.5405 119.03 97.5232 121.753 93.4887C 124.577 89.3534 125.989 83.8061 125.989 76.8467ZM 201.719 59.1458C 203.635 62.1716 204.593 67.3154 204.593 74.5774L 204.593 116.787L 227.136 116.787L 227.136 73.3668C 227.136 70.4419 227.035 67.7187 226.833 65.1972C 226.631 62.5747 226.178 60.1037 225.471 57.7839C 226.884 56.8761 228.649 56.1196 230.767 55.5146C 232.986 54.9089 234.7 54.606 235.911 54.606C 240.449 54.606 243.626 56.1189 245.442 59.1448C 247.358 62.1706 248.316 67.3144 248.316 74.5763L 248.316 116.787L 270.859 116.787L 270.859 71.853C 270.859 66.4066 270.405 61.4646 269.497 57.0267C 268.589 52.5889 266.925 48.7561 264.505 45.5285C 262.084 42.301 258.806 39.8299 254.671 38.1152C 250.636 36.2998 245.442 35.3921 239.088 35.3921C 235.558 35.3921 231.674 36.0477 227.438 37.3589C 223.303 38.67 219.622 40.4854 216.394 42.8052C 214.074 40.7881 211.099 39.0735 207.468 37.6614C 203.938 36.1485 199.298 35.3921 193.549 35.3921C 190.624 35.3921 187.649 35.5435 184.623 35.8463C 181.597 36.0479 178.622 36.4009 175.697 36.9054C 172.873 37.3083 170.149 37.8126 167.527 38.4183C 165.005 38.9224 162.787 39.4267 160.87 39.9312L 160.87 116.787L 183.413 116.787L 183.413 55.3628C 184.825 55.1605 186.287 55.009 187.8 54.9085C 189.313 54.7076 190.775 54.6071 192.187 54.6071C 196.726 54.6071 199.903 56.12 201.719 59.1458ZM 314.197 35.0934L 314.197 35.0878C 320.854 35.0878 326.399 35.8461 330.837 37.3591C 335.275 38.8719 338.809 41.0384 341.431 43.8626C 344.155 46.6866 346.068 50.1171 347.178 54.1516C 348.287 58.1859 348.844 62.6738 348.844 67.616L 348.844 114.519C 345.617 115.225 341.129 116.029 335.38 116.937C 329.631 117.946 322.672 118.451 314.502 118.451C 309.358 118.451 304.664 117.997 300.428 117.09C 296.292 116.182 292.712 114.722 289.687 112.705C 286.661 110.587 284.345 107.863 282.731 104.535C 281.117 101.206 280.307 97.1208 280.307 92.2793C 280.307 87.6398 281.215 83.7036 283.031 80.4761C 284.947 77.2486 287.47 74.6798 290.596 72.7634C 293.723 70.8471 297.303 69.4852 301.337 68.6783C 305.372 67.7706 309.561 67.3166 313.898 67.3166C 316.823 67.3166 319.391 67.4658 321.61 67.7687C 323.93 67.9697 325.798 68.2736 327.21 68.6783L 327.21 66.5595C 327.21 62.7269 326.049 59.6525 323.729 57.3327C 321.409 55.0129 317.375 53.8522 311.626 53.8522C 307.794 53.8522 304.013 54.1561 300.281 54.7618C 296.549 55.2656 293.319 56.0186 290.596 57.0277L 287.72 38.8735C 289.031 38.4701 290.646 38.0678 292.563 37.6643C 294.58 37.1604 296.752 36.7582 299.071 36.4551C 301.391 36.0517 303.811 35.7479 306.332 35.5455C 308.954 35.2426 311.575 35.0934 314.197 35.0934ZM 323.125 82.7473C 321.309 82.5449 319.643 82.4422 318.13 82.4422C 316.012 82.4422 313.995 82.5969 312.078 82.8998C 310.263 83.1021 308.648 83.5561 307.236 84.2615C 305.824 84.9674 304.715 85.9216 303.908 87.1319C 303.101 88.3423 302.699 89.8592 302.699 91.6746C 302.699 95.2047 303.86 97.6756 306.18 99.0877C 308.6 100.399 311.876 101.054 316.011 101.054C 318.23 101.054 320.35 101.002 322.367 100.901C 324.385 100.801 325.999 100.652 327.21 100.449L 327.21 83.3519C 326.302 83.1495 324.94 82.9483 323.125 82.7473ZM 386.495 100.599C 390.631 100.599 393.555 100.196 395.27 99.3891C 396.985 98.5822 397.842 97.0189 397.842 94.699C 397.842 92.8835 396.733 91.3202 394.514 90.009C 392.295 88.5969 388.916 87.0336 384.377 85.319C 380.847 84.0078 377.62 82.6462 374.695 81.2341C 371.87 79.8221 369.45 78.1579 367.433 76.2415C 365.415 74.2243 363.852 71.8541 362.743 69.131C 361.633 66.4077 361.078 63.1297 361.078 59.297C 361.078 51.8333 363.852 45.933 369.399 41.596C 374.947 37.259 382.562 35.0905 392.244 35.0905C 397.086 35.0905 401.725 35.5443 406.163 36.452C 410.601 37.2589 414.131 38.1667 416.753 39.1753L 412.82 56.7251C 410.198 55.8174 407.323 55.0105 404.196 54.3044C 401.171 53.5985 397.741 53.2455 393.909 53.2455C 386.848 53.2455 383.318 55.2122 383.318 59.1458C 383.318 60.0535 383.469 60.8603 383.772 61.5663C 384.075 62.2724 384.68 62.9784 385.587 63.6844C 386.495 64.2902 387.706 64.9961 389.218 65.8025C 390.832 66.5085 392.849 67.3154 395.27 68.2231C 400.212 70.0386 404.297 71.8541 407.525 73.6696C 410.752 75.3842 413.274 77.3006 415.089 79.4186C 417.006 81.4358 418.317 83.7052 419.023 86.2268C 419.83 88.7483 420.233 91.6732 420.233 95.0016C 420.233 102.869 417.258 108.82 411.307 112.854C 405.457 116.888 397.136 118.906 386.344 118.906C 379.284 118.906 373.383 118.3 368.643 117.09C 364.003 115.88 360.776 114.871 358.96 114.064L 362.743 95.7581C 366.575 97.271 370.509 98.4814 374.543 99.3891C 378.578 100.196 382.562 100.599 386.495 100.599ZM 9.75507 246.001C 16.2584 255.106 25.6133 259.658 37.8196 259.658C 42.7222 259.658 47.0244 259.008 50.7263 257.707C 54.5283 256.406 57.5799 254.856 59.8811 253.055L 56.1292 242.399C 53.7279 244 51.2266 245.301 48.6252 246.301C 46.1239 247.302 42.8222 247.802 38.7201 247.802C 30.1156 247.802 23.9124 244 20.1104 236.396C 16.3085 228.792 14.4075 217.936 14.4075 203.829C 14.4075 189.822 16.2084 179.516 19.8103 172.913C 23.4122 166.21 29.2152 162.858 37.2193 162.858C 40.8212 162.858 43.9728 163.358 46.6742 164.358C 49.4757 165.359 52.077 166.66 54.4783 168.261L 58.5304 157.005C 56.1292 155.304 53.0275 153.903 49.2256 152.803C 45.4236 151.602 41.3215 151.002 36.9192 151.002C 31.6164 151.002 26.7139 151.952 22.2115 153.853C 17.7092 155.654 13.8072 158.656 10.5054 162.858C 7.20372 167.06 4.60237 172.513 2.70139 179.216C 0.900452 185.92 0 194.124 0 203.829C 0 222.839 3.25168 236.896 9.75507 246.001ZM 123.829 217.36C 123.829 223.672 123.269 229.424 122.15 234.615C 121.03 239.705 119.299 244.083 116.958 247.747C 114.718 251.412 111.817 254.263 108.254 256.299C 104.793 258.335 100.67 259.353 95.8855 259.353C 91.1009 259.353 86.9271 258.335 83.3641 256.299C 79.8012 254.263 76.849 251.412 74.5076 247.747C 72.268 244.083 70.5883 239.705 69.4685 234.615C 68.3487 229.424 67.7888 223.672 67.7888 217.36C 67.7888 211.151 68.3487 205.45 69.4685 200.258C 70.5883 195.066 72.268 190.638 74.5076 186.973C 76.849 183.207 79.8012 180.305 83.3641 178.27C 86.9271 176.234 91.1009 175.216 95.8855 175.216C 100.67 175.216 104.793 176.234 108.254 178.27C 111.817 180.305 114.718 183.207 116.958 186.973C 119.299 190.638 121.03 195.066 122.15 200.258C 123.269 205.45 123.829 211.151 123.829 217.36ZM 110.086 217.36C 110.086 212.881 109.832 208.809 109.323 205.144C 108.814 201.378 108 198.171 106.88 195.525C 105.76 192.776 104.284 190.689 102.452 189.264C 100.619 187.737 98.4305 186.973 95.8855 186.973C 93.2387 186.973 90.9992 187.737 89.1668 189.264C 87.4362 190.689 85.9601 192.776 84.7385 195.525C 83.6187 198.171 82.8043 201.378 82.2953 205.144C 81.7863 208.809 81.5318 212.881 81.5318 217.36C 81.5318 221.84 81.7863 225.962 82.2953 229.729C 82.8043 233.394 83.6187 236.55 84.7385 239.196C 85.9601 241.843 87.4362 243.93 89.1668 245.457C 90.9992 246.882 93.2387 247.595 95.8855 247.595C 98.4305 247.595 100.619 246.882 102.452 245.457C 104.284 243.93 105.76 241.843 106.88 239.196C 108 236.55 108.814 233.394 109.323 229.729C 109.832 225.962 110.086 221.84 110.086 217.36ZM 161.446 186.973C 165.518 186.973 169.183 187.686 172.441 189.111L 174.731 177.812C 172.593 176.998 170.303 176.438 167.86 176.132C 165.416 175.826 162.973 175.674 160.53 175.674C 155.949 175.674 151.724 176.183 147.856 177.201C 144.089 178.117 140.73 179.288 137.778 180.713L 137.778 257.368L 150.91 257.368L 150.91 188.958C 154.168 187.635 157.68 186.973 161.446 186.973ZM 186.91 179.491C 190.677 178.371 194.749 177.455 199.126 176.742C 203.503 175.928 207.524 175.521 211.189 175.521C 215.159 175.521 218.773 176.081 222.031 177.2C 225.288 178.218 228.037 180 230.277 182.545C 232.618 185.09 234.399 188.551 235.621 192.929C 236.944 197.204 237.606 202.549 237.606 208.962L 237.606 257.367L 224.474 257.367L 224.474 210.031C 224.474 202.09 223.456 196.288 221.42 192.623C 219.384 188.958 215.567 187.126 209.968 187.126C 207.015 187.126 203.707 187.635 200.042 188.653L 200.042 257.367L 186.91 257.367L 186.91 179.491ZM 267.919 231.867C 267.308 228.609 266.952 225.046 266.85 221.178L 280.28 221.178L 280.28 210.489L 267.003 210.489C 267.41 203.159 268.581 197.306 270.515 192.929C 272.551 188.551 275.757 186.362 280.135 186.362C 280.183 186.362 280.232 186.363 280.28 186.363L 280.28 175.216C 280.232 175.216 280.183 175.216 280.135 175.216C 272.093 175.216 265.628 178.626 260.742 185.446C 255.856 192.267 253.412 203.058 253.412 217.819C 253.412 223.926 253.921 229.525 254.939 234.615C 255.957 239.705 257.637 244.083 259.978 247.747C 262.422 251.412 265.527 254.263 269.293 256.299C 272.398 257.933 276.06 258.911 280.28 259.234L 280.28 247.249C 278.807 246.919 277.486 246.423 276.317 245.762C 274.078 244.439 272.245 242.607 270.82 240.265C 269.497 237.822 268.53 235.023 267.919 231.867ZM 420.574 259.242C 421.598 259.319 422.655 259.358 423.745 259.358C 428.021 259.358 431.685 258.798 434.739 257.678C 437.895 256.66 440.135 255.693 441.458 254.777L 439.015 244.24C 437.895 244.851 436.063 245.615 433.518 246.531C 431.075 247.345 428.377 247.752 425.425 247.752C 423.658 247.752 422.041 247.59 420.574 247.264L 420.574 259.242ZM 420.574 221.183L 445.123 221.183C 445.225 219.961 445.276 218.791 445.276 217.671L 445.276 214.159C 445.276 201.841 443.392 192.272 439.626 185.451C 435.885 178.678 429.535 175.268 420.574 175.221L 420.574 186.369C 424.848 186.431 427.737 188.619 429.242 192.934C 430.769 197.209 431.533 203.063 431.533 210.494L 420.574 210.494L 420.574 221.183ZM 474.145 244.846C 472.211 246.984 469.309 248.053 465.441 248.053C 462.285 248.053 459.384 247.544 456.737 246.526C 454.192 245.508 452.156 244.592 450.629 243.778L 447.881 254.619C 449.509 255.536 451.953 256.554 455.21 257.673C 458.468 258.793 462.132 259.353 466.204 259.353C 474.145 259.353 480.151 257.215 484.223 252.94C 488.397 248.664 490.484 243.014 490.484 235.99C 490.484 232.631 490.026 229.781 489.109 227.439C 488.193 224.996 486.971 222.909 485.445 221.178C 484.019 219.346 482.34 217.768 480.405 216.445C 478.573 215.121 476.69 213.9 474.756 212.78C 473.127 211.864 471.549 210.897 470.022 209.879C 468.597 208.861 467.273 207.792 466.052 206.672C 464.932 205.45 464.016 204.127 463.303 202.702C 462.591 201.175 462.234 199.393 462.234 197.357C 462.234 193.794 463.201 191.097 465.136 189.264C 467.07 187.33 469.666 186.363 472.923 186.363C 475.061 186.363 477.046 186.617 478.879 187.126C 480.711 187.635 482.543 188.399 484.376 189.416L 487.277 178.88C 485.546 177.964 483.358 177.15 480.711 176.437C 478.064 175.623 475.265 175.216 472.312 175.216C 465.288 175.216 459.689 177.251 455.516 181.323C 451.444 185.395 449.408 190.74 449.408 197.357C 449.408 200.411 449.764 203.109 450.476 205.45C 451.291 207.689 452.309 209.726 453.53 211.558C 454.854 213.288 456.33 214.866 457.959 216.292C 459.587 217.615 461.267 218.786 462.998 219.804C 464.728 220.923 466.459 221.992 468.19 223.01C 469.92 223.926 471.447 224.995 472.771 226.217C 474.094 227.439 475.163 228.864 475.977 230.492C 476.792 232.019 477.199 233.903 477.199 236.142C 477.199 239.705 476.181 242.607 474.145 244.846Z"/>
<path id="path1_fill" d="M 23.3867 140.305L 0 140.301L 46.7656 0.00390625L 70.1562 0.00390625L 23.3867 140.305Z"/>
<path id="path2_fill" d="M 70.1523 140.301L 46.7617 140.301L 93.5312 0L 116.883 0.00390625L 70.1523 140.301Z"/>
</defs>
</svg>
