<?xml version="1.0" encoding="UTF-8" standalone="no"?>
<!-- Created with Inkscape (http://www.inkscape.org/) -->
<svg id="svg3092" xmlns:rdf="http://www.w3.org/1999/02/22-rdf-syntax-ns#" xmlns="http://www.w3.org/2000/svg" height="40.1" width="253.4" version="1.1" xmlns:cc="http://creativecommons.org/ns#" xmlns:dc="http://purl.org/dc/elements/1.1/">
 <metadata id="metadata3097">
  <rdf:RDF>
   <cc:Work rdf:about="">
    <dc:format>image/svg+xml</dc:format>
    <dc:type rdf:resource="http://purl.org/dc/dcmitype/StillImage"/>
    <dc:title/>
   </cc:Work>
  </rdf:RDF>
 </metadata>
 <g id="layer1" transform="translate(-188.54563,-517.81225)">
  <g id="g3878-1-4" transform="matrix(0.09551228,0,0,0.09551228,109.81634,486.16862)">
   <path id="path3823-4-8-7-8" fill="#f39c12" transform="translate(725.28954,100.00512)" d="m563.67,441.22c0,23.234-96.047,189.59-116.17,201.21-20.121,11.617-212.21,11.617-232.34,0-20.12-11.62-116.16-177.98-116.16-201.21,0-23.234,96.047-189.59,116.17-201.21,20.121-11.617,212.21-11.617,232.34,0,20.121,11.617,116.17,177.97,116.17,201.21z"/>
   <path id="path3813-4-2-4-8" fill="#34495e" d="m1031.5,365.45c-34.925,0.75458-65.487,2.9968-72.312,6.9375-16.884,9.748-97.5,149.35-97.5,168.84,0,7.8792,13.323,35.512,30.125,66.125l139.68-241.91zm119.84,5.9688-194.44,336.75c0.77699,0.6875,1.6663,1.5512,2.2812,1.9063,9.6219,5.5552,65.875,7.8389,115.81,7.0625l143.16-247.94c-24.298-43.639-54.409-91.257-64.031-96.812-0.6129-0.35388-1.8017-0.64056-2.7812-0.96875z"/>
  </g>
  <g id="text3801-2" style="letter-spacing:0px;word-spacing:0px;" font-weight="normal" transform="matrix(0.7847336,0,0,0.7847336,40.587539,120.09976)" font-size="24.22990608px" font-stretch="normal" line-height="89.99999762%" font-variant="normal" font-family="Roboto" font-style="normal" fill="#FFF">
   <path id="path3117" d="m270.46,515.48c-0.00002,0.34802-0.12048,0.52201-0.36137,0.52199-0.37478,0.00002-2.7438-0.0803-7.107-0.24092-0.12047,4.0822-0.1807,7.3547-0.18069,9.8174-0.00001,1.5392,0.0569,3.848,0.17065,6.9264s0.17063,5.3872,0.17065,6.9264c-0.00002,0.28107-0.19409,0.42161-0.58222,0.42161-0.24093,0-0.60899-0.0201-1.1042-0.0602-0.49523-0.0402-0.86999-0.0602-1.1243-0.0602-0.24093,0-0.60899,0.0201-1.1042,0.0602-0.49523,0.0401-0.8633,0.0602-1.1042,0.0602-0.33461,0-0.50191-0.1673-0.50191-0.50191,0-1.5258,0.0636-3.8179,0.19073-6.8762,0.12714-3.0583,0.19072-5.357,0.19073-6.8962-0.00001-2.3824-0.0736-5.6548-0.22085-9.8174-3.4531,0.21417-5.9828,0.32125-7.5889,0.32122-0.16061,0.00003-0.24092-0.0669-0.24092-0.20076,0-0.24089,0.0602-0.58889,0.18069-1.044,0.14723-0.58888,0.23422-0.93687,0.26099-1.044,0.0268-0.46842,0.12046-1.1176,0.28107-1.9474,0.0669-0.17397,0.18069-0.26097,0.3413-0.26099l0.24092,0.0201c4.738,0.2811,7.8632,0.42163,9.3757,0.42161,1.3384,0.00002,3.5267-0.10036,6.565-0.30115,2.0746-0.13381,2.9378-0.20074,2.5899-0.20076,0.34797,0.00002,0.54204,0.12048,0.58222,0.36137-0.0268-0.1472-0.0402,0.50194-0.0402,1.9474-0.00003,0.17403,0.0201,0.44506,0.0602,0.8131,0.0401,0.36809,0.0602,0.64581,0.0602,0.83317z"/>
   <path id="path3119" d="m291.06,530.07c-0.00002,2.7973-0.91685,5.1864-2.7505,7.1673-1.8738,2.0478-4.196,3.0717-6.9665,3.0717-2.7839,0-5.1128-1.0172-6.9866-3.0516-1.8336-1.9675-2.7505-4.3499-2.7505-7.1472s0.91682-5.1797,2.7505-7.1472c1.8872-2.0076,4.216-3.0114,6.9866-3.0115,2.7572,0.00002,5.0726,1.0038,6.9464,3.0115,1.847,1.9541,2.7705,4.3231,2.7706,7.107zm-4.2361,0.0402c-0.00001-1.6329-0.50192-3.0248-1.5057-4.1759-1.044-1.218-2.369-1.8269-3.9751-1.827-1.6061,0.00001-2.9379,0.60231-3.9952,1.8069-1.0038,1.1644-1.5057,2.5631-1.5057,4.196,0,1.6061,0.5086,2.9981,1.5258,4.1759,1.0707,1.2447,2.3958,1.8671,3.9751,1.8671,1.5927,0,2.9178-0.62237,3.9751-1.8671,1.0038-1.1778,1.5057-2.5698,1.5057-4.1759z"/>
   <path id="path3121" d="m324.42,539.11c-0.00003,0.52199-0.15395,0.78298-0.46175,0.78298-0.2008,0-0.50529-0.0201-0.91348-0.0602-0.40825-0.0401-0.71944-0.0602-0.93355-0.0602-0.22757,0-0.56887,0.0134-1.0239,0.0402-0.4551,0.0268-0.79639,0.0401-1.0239,0.0401-0.2811,0-0.42163-0.31453-0.4216-0.94359-0.00003-0.61568,0.0234-1.5358,0.0703-2.7605,0.0468-1.2247,0.0702-2.1448,0.0703-2.7605-0.00003-3.3862-0.0134-5.2734-0.0401-5.6616-0.1071-1.3786-0.38817-2.3288-0.84321-2.8508-0.52201-0.56212-1.4522-0.84319-2.7906-0.84321-0.84324,0.00002-1.7935,0.40155-2.8508,1.2046-1.0975,0.84322-1.6664,1.673-1.7065,2.4895-0.0536,1.044-0.0803,2.9512-0.0803,5.7218-0.00001,0.65584,0.0267,1.6396,0.0803,2.9512,0.0535,1.3117,0.0803,2.2954,0.0803,2.9512-0.00002,0.36137-0.12048,0.54206-0.36138,0.54206-0.24094,0-0.59227-0.0201-1.054-0.0602-0.46178-0.0401-0.81311-0.0602-1.054-0.0602-0.21417,0-0.5287,0.0134-0.94359,0.0402-0.41493,0.0268-0.72946,0.0401-0.9436,0.0401-0.2677,0-0.40154-0.19407-0.40152-0.58222-0.00002-0.64244,0.0201-1.6094,0.0602-2.901s0.0602-2.2586,0.0602-2.901v-4.8384c-0.00001-1.5124-0.1807-2.5898-0.54206-3.2323-0.50862-0.91012-1.479-1.3652-2.9111-1.3652-0.84322,0.00002-1.847,0.3547-3.0115,1.064-1.2849,0.77631-1.9274,1.5593-1.9273,2.3489v5.8623c-0.00001,0.66922,0.007,1.6664,0.0201,2.9914,0.0134,1.325,0.0201,2.3155,0.0201,2.9713,0,0.38815-0.15392,0.58222-0.46175,0.58222h-3.7342c-0.26768,0-0.40153-0.18069-0.40152-0.54206-0.00001-1.0841,0.007-2.7137,0.0201-4.8886,0.0134-2.1749,0.0201-3.8045,0.0201-4.8886,0-2.4493-0.261-4.8919-0.78298-7.3279-0.0402-0.17398-0.0602-0.31451-0.0602-0.42161,0-0.17397,0.0602-0.27435,0.18069-0.30114,0.49521-0.0535,1.218-0.1539,2.1682-0.30115,0.44168-0.13382,1.1042-0.28105,1.9876-0.44168l0.16062-0.0201c0.1606,0.00002,0.31117,0.47182,0.45172,1.4154,0.14052,0.94361,0.26433,1.4154,0.37141,1.4154-0.00001,0.00002,0.3346-0.29444,1.0038-0.88336,0.78966-0.68258,1.5793-1.2246,2.369-1.6262,1.1376-0.58889,2.2753-0.88335,3.413-0.88336,3.0784,0.00001,5.0392,1.2581,5.8824,3.7744,0.8298-1.0707,1.8604-1.9541,3.0918-2.6501,1.3116-0.7495,2.6099-1.1243,3.8948-1.1243,2.4761,0.00001,4.1892,0.72277,5.1396,2.1682,0.68257,1.0708,1.0239,2.7639,1.0239,5.0793-0.00003,0.44169-0.0134,1.1243-0.0402,2.0478-0.0268,0.92352-0.0402,1.6061-0.0402,2.0478-0.00003,0.84322,0.02,2.1114,0.0602,3.8045,0.0401,1.6931,0.0602,2.9613,0.0602,3.8045z"/>
   <path id="path3123" d="m347.95,521.68c-0.00002,0.0536-0.0201,0.17402-0.0602,0.36138-0.52201,3.065-0.783,5.7084-0.78298,7.9302-0.00002,0.13386,0.16728,3.1386,0.50191,9.0143l0.0201,0.28107c0.0134,0.38815-0.16398,0.58222-0.53203,0.58222-0.36809,0-0.92353,0.0435-1.6663,0.1305-0.74285,0.087-1.295,0.13049-1.6563,0.13049-0.25432,0-0.44839-0.46845-0.58222-1.4054-0.13386-0.93689-0.26101-1.4053-0.38145-1.4054-0.0803,0.00001-0.4417,0.261-1.0841,0.78299-0.78969,0.64244-1.5258,1.131-2.2084,1.4656-1.0574,0.53537-2.1147,0.80306-3.1721,0.80306-2.5966,0-4.7849-1.0373-6.565-3.1118-1.6864-1.9809-2.5296-4.2897-2.5296-6.9264,0-2.9713,0.8499-5.4273,2.5497-7.368,1.7801-2.021,4.1224-3.0315,7.0268-3.0315,2.0478,0.00002,3.8346,0.70938,5.3604,2.1281,0.22752,0.2677,0.5822,0.65585,1.064,1.1644,0.0401,0.0402,0.0803,0.0602,0.12046,0.0602,0.0803,0.00002,0.19405-0.42159,0.3413-1.2648,0.14721-0.8432,0.33459-1.2648,0.56214-1.2648,0.36135,0.00002,1.0373,0.1004,2.0277,0.30115,1.0975,0.24093,1.6462,0.45508,1.6463,0.64244zm-5.1195,8.3919c-0.00001-1.6462-0.48854-3.0583-1.4656-4.2361-1.0306-1.2715-2.349-1.9072-3.9551-1.9073-1.6061,0.00002-2.9446,0.62908-4.0153,1.8872-1.0306,1.2046-1.5459,2.6233-1.5459,4.2562,0,1.6195,0.51529,3.0249,1.5459,4.216,1.0707,1.2447,2.4092,1.8671,4.0153,1.8671,1.566,0,2.8776-0.63575,3.935-1.9073,0.99042-1.1912,1.4856-2.5832,1.4856-4.1759zm1.586-16.744c-0.20078,0.54878-1.6797,1.566-4.4369,3.0516-2.6902,1.4589-4.3566,2.1884-4.999,2.1883-0.24093,0.00002-0.44839-0.33459-0.62237-1.0038-0.13385-0.52197-0.20078-0.96365-0.20077-1.325-0.00001-0.13382,0.12714-0.26097,0.38145-0.38145,2.2084-1.0975,4.4971-2.5497,6.8661-4.3566,0.0535-0.0535,0.1539-0.11374,0.30114-0.18069,0.0669,0.0268,0.15391,0.087,0.261,0.18069,0.57551,0.48186,1.3183,1.0038,2.2285,1.566,0.0669,0.0402,0.14052,0.12718,0.22084,0.26099z"/>
   <path id="path3125" d="m360.64,533.66c-0.00001,1.9943-0.79637,3.5937-2.3891,4.7983-1.4455,1.0975-3.2055,1.6463-5.2801,1.6463-0.80306,0-1.2581-0.0201-1.3652-0.0602-0.22754-0.10707-0.3413-0.43498-0.3413-0.98374,0-0.29445-0.0368-0.73613-0.11042-1.325-0.0736-0.58891-0.11042-1.0239-0.11042-1.305,0-0.17399,0.12045-0.28776,0.36137-0.3413,0.174-0.0402,0.42161-0.0402,0.74283,0,0.41491,0.0402,0.61567,0.0602,0.60229,0.0602,2.5296,0,3.7944-0.77628,3.7944-2.3289-0.00001-0.73612-0.55546-1.412-1.6664-2.0277-1.8069-0.99043-2.8442-1.5994-3.1118-1.827-1.1109-0.95027-1.6663-2.195-1.6663-3.7342,0-2.0076,0.75621-3.5736,2.2686-4.6979,1.3652-1.0038,3.0918-1.5057,5.1797-1.5057,0.18737,0.00002,0.32456,0.087,0.41156,0.26099,0.087,0.17402,0.2543,0.71608,0.50191,1.6262,0.2476,0.91015,0.37141,1.4589,0.37142,1.6463-0.00001,0.14724-0.12716,0.24093-0.38145,0.28107-0.85661,0.12047-1.7199,0.23424-2.5899,0.34129-1.0306,0.28109-1.5459,0.84323-1.5459,1.6864,0,0.60231,0.54206,1.2113,1.6262,1.827,1.6061,0.89676,2.6233,1.5459,3.0516,1.9474,1.0975,1.044,1.6462,2.3824,1.6463,4.0153z"/>
   <path id="path3127" d="m385.72,535.21c-0.00003,0.16061-0.12718,0.38815-0.38145,0.6826-2.61,3.0248-5.8423,4.5373-9.6969,4.5373-4.0153,0-7.2275-1.4656-9.6367-4.3967-2.2486-2.7304-3.3728-6.1434-3.3728-10.239s1.1444-7.5219,3.4331-10.279c2.4359-2.9713,5.6548-4.4569,9.6568-4.457,4.0554,0.00003,7.194,1.3719,9.4158,4.1157,0.21413,0.2811,0.3212,0.51532,0.32122,0.70268-0.00002,0.22755-0.3547,0.90011-1.064,2.0177-0.70938,1.1176-1.1377,1.6764-1.2849,1.6764-0.17401,0.00002-0.58223-0.3279-1.2247-0.98375-0.78969-0.80303-1.5325-1.4053-2.2285-1.8069-1.1511-0.65581-2.4226-0.98372-3.8145-0.98375-2.6501,0.00003-4.7113,1.0105-6.1835,3.0315-1.3117,1.8069-1.9675,4.0822-1.9675,6.826-0.00001,2.7438,0.64913,5.0392,1.9474,6.8862,1.4723,2.0746,3.5267,3.1118,6.1635,3.1118,1.3116,0,2.5764-0.32791,3.7944-0.98375,0.80304-0.42829,1.6195-1.0373,2.4493-1.827,0.69597-0.65582,1.0774-0.98374,1.1444-0.98374,0.0803,0,0.52196,0.53203,1.325,1.5961s1.2046,1.6496,1.2046,1.7567z"/>
   <path id="path3129" d="m406.13,530.07c-0.00002,2.7973-0.91685,5.1864-2.7505,7.1673-1.8738,2.0478-4.196,3.0717-6.9665,3.0717-2.7839,0-5.1128-1.0172-6.9866-3.0516-1.8336-1.9675-2.7505-4.3499-2.7505-7.1472s0.91682-5.1797,2.7505-7.1472c1.8872-2.0076,4.216-3.0114,6.9866-3.0115,2.7572,0.00002,5.0726,1.0038,6.9464,3.0115,1.847,1.9541,2.7705,4.3231,2.7706,7.107zm-4.2361,0.0402c-0.00001-1.6329-0.50192-3.0248-1.5057-4.1759-1.044-1.218-2.369-1.8269-3.9751-1.827-1.6061,0.00001-2.9379,0.60231-3.9952,1.8069-1.0038,1.1644-1.5057,2.5631-1.5057,4.196,0,1.6061,0.5086,2.9981,1.5258,4.1759,1.0707,1.2447,2.3958,1.8671,3.9751,1.8671,1.5927,0,2.9178-0.62237,3.9751-1.8671,1.0038-1.1778,1.5057-2.5698,1.5057-4.1759z"/>
   <path id="path3131" d="m420.47,521c-0.00001,1.4723-0.1004,2.8107-0.30115,4.0153-0.0402,0.30785-0.17401,0.46177-0.40153,0.46176-0.28108,0.00001-0.70603-0.0301-1.2748-0.0904-0.56884-0.0602-1.0005-0.0903-1.2949-0.0903-1.6864,0.00001-2.7639,0.47515-3.2323,1.4254-0.28108,0.57554-0.42161,1.7734-0.42161,3.5937v2.2084c0,0.74952,0.0301,1.8872,0.0904,3.413,0.0602,1.5258,0.0903,2.6635,0.0903,3.413,0,0.36137-0.15392,0.54206-0.46175,0.54206-0.41492,0-1.044-0.007-1.8872-0.0201-0.84321-0.0134-1.4723-0.0201-1.8872-0.0201-0.30784,0-0.46176-0.1673-0.46176-0.50191,0-1.0841,0.0167-2.717,0.0502-4.8986s0.0502-3.8212,0.0502-4.9187c0-3.3059-0.30784-5.9627-0.92351-7.9703-0.0268-0.10705-0.0402-0.18736-0.0401-0.24091-0.00001-0.1606,0.087-0.27436,0.26099-0.3413,0.49522-0.0535,1.1912-0.13383,2.088-0.24092,1.4455-0.26766,2.1147-0.40151,2.0076-0.40153,0.21414,0.00002,0.35468,0.39486,0.4216,1.1845,0.0669,0.78969,0.18738,1.1845,0.36138,1.1845,0.0268,0.00002,0.0602-0.0134,0.10038-0.0401,0.54875-0.34798,1.0975-0.69597,1.6463-1.044,0.60228-0.36135,1.218-0.62904,1.847-0.80305,0.52197-0.1606,1.1912-0.2409,2.0076-0.24092,1.044,0.00002,1.566,0.14055,1.566,0.4216z"/>
   <path id="path3133" d="m440.4,539.45c-0.00002,0.29446-0.13386,0.44168-0.40153,0.44168-0.4417,0-1.1009-0.007-1.9775-0.0201-0.87669-0.0134-1.5359-0.0201-1.9775-0.0201-0.24093,0-0.36139-0.19407-0.36138-0.58222-0.00001-0.65582,0.0201-1.653,0.0602-2.9914s0.0602-2.3422,0.0602-3.0115c-0.00001-0.53537-0.007-1.3351-0.0201-2.3991-0.0134-1.064-0.0201-1.8638-0.0201-2.3991-0.00002-1.5258-0.22086-2.6032-0.66252-3.2323-0.53539-0.74951-1.5258-1.1243-2.9713-1.1243-0.66923,0.00001-1.5994,0.37477-2.7906,1.1243-1.2581,0.78968-1.8872,1.4924-1.8872,2.108v12.046c0,0.33461-0.12716,0.50191-0.38145,0.50191-0.4283,0-1.0708-0.007-1.9273-0.0201-0.85659-0.0134-1.499-0.0201-1.9273-0.0201-0.28107,0-0.42161-0.15392-0.42161-0.46176,0-1.0574,0.0167-2.6434,0.0502-4.7581s0.0502-3.7074,0.0502-4.7782c-0.00001-2.8508-0.30115-5.4808-0.90344-7.89-0.0402-0.12044-0.0602-0.20744-0.0602-0.26099,0-0.13383,0.087-0.22752,0.26099-0.28107,0.0937-0.0134,0.85994-0.13717,2.2988-0.37141,1.4388-0.23421,2.1917-0.35132,2.2586-0.35134,0.0803,0.00002,0.13383,0.10709,0.16061,0.32122,0.0669,0.82984,0.22083,1.6664,0.46176,2.5096,0.69597-0.54874,1.6128-1.2313,2.7505-2.0478,1.4053-0.85658,2.7638-1.2849,4.0755-1.2849,2.5162,0.00002,4.2361,0.72946,5.1596,2.1883,0.68258,1.0708,1.0239,2.804,1.0239,5.1998-0.00002,0.41492-0.0101,1.0507-0.0301,1.9073-0.0201,0.8566-0.0301,1.499-0.0301,1.9273-0.00001,0.89676,0.0134,2.2352,0.0402,4.0153,0.0267,1.7801,0.0401,3.1185,0.0401,4.0153z"/>
   <path id="path3135" d="m461.24,529.07c-0.00001,0.99045-0.42831,1.653-1.2849,1.9876-0.57554,0.21416-4.718,0.60899-12.427,1.1845,0.17399,1.1778,0.82313,2.1816,1.9474,3.0115,1.0707,0.78968,2.2218,1.1845,3.4532,1.1845,2.1147,0,4.0554-0.6826,5.8222-2.0478,0.21413-0.17399,0.42828-0.34798,0.64244-0.52198,0.10706,0,0.17733,0.0134,0.21081,0.0402,0.0334,0.0268,0.28439,0.49188,0.75286,1.3953,0.46843,0.90344,0.70266,1.3886,0.70268,1.4555-0.00002,0.0803-0.1071,0.23423-0.32123,0.46176-1.9675,2.088-4.4904,3.1319-7.5688,3.1319-3.1052,0-5.5812-0.92686-7.4283-2.7806-1.847-1.8537-2.7706-4.3265-2.7705-7.4182-0.00001-2.7572,0.88336-5.1596,2.6501-7.2074,1.8604-2.1281,4.1424-3.1921,6.8461-3.1922,2.5162,0.00002,4.6176,0.92353,6.304,2.7705,1.6462,1.7935,2.4694,3.9752,2.4694,6.5449zm-4.7782-1.2247c-0.00002-1.1109-0.43835-2.0946-1.315-2.9512-0.87668-0.85658-1.8638-1.2849-2.9613-1.2849-1.2314,0.00002-2.3255,0.49523-3.2825,1.4856-0.95699,0.99045-1.4355,2.1014-1.4355,3.3327,0,0.28108,0.24091,0.42161,0.72275,0.4216,1.9809,0.00001,4.3499-0.20075,7.107-0.60229,0.77628-0.10706,1.1644-0.2409,1.1644-0.40153z"/>
   <path id="path3137" d="m469.15,512-0.0201,0.26099c-0.29446,4.979-0.44169,9.2552-0.44168,12.829-0.00001,1.5928,0.0268,3.9785,0.0803,7.1572,0.0535,3.1788,0.0803,5.5578,0.0803,7.1372-0.00001,0.30784-0.10708,0.46176-0.32123,0.46176h-3.8346c-0.24092,0-0.36138-0.15392-0.36138-0.46176,0-1.5793,0.0134-3.9584,0.0402-7.1372s0.0402-5.5645,0.0402-7.1572c0-1.4455-0.0703-3.6171-0.2108-6.5148-0.14054-2.8977-0.21081-5.0626-0.21081-6.4947,0-0.26766,0.14054-0.4015,0.42161-0.40153,0.24091,0.00003,0.60229,0.0201,1.0841,0.0602,0.48183,0.0402,0.8432,0.0602,1.0841,0.0602,0.2543,0.00002,0.62906-0.02,1.1243-0.0602,0.49521-0.0401,0.86328-0.0602,1.1042-0.0602,0.24091,0.00003,0.35468,0.1071,0.3413,0.32122z"/>
   <path id="path3139" d="m478.23,512-0.0201,0.26099c-0.29447,4.979-0.44169,9.2552-0.44169,12.829,0,1.5928,0.0268,3.9785,0.0803,7.1572,0.0535,3.1788,0.0803,5.5578,0.0803,7.1372-0.00001,0.30784-0.10709,0.46176-0.32123,0.46176h-3.8346c-0.24092,0-0.36138-0.15392-0.36138-0.46176,0-1.5793,0.0134-3.9584,0.0402-7.1372s0.0402-5.5645,0.0402-7.1572c0-1.4455-0.0703-3.6171-0.2108-6.5148-0.14054-2.8977-0.21081-5.0626-0.21081-6.4947,0-0.26766,0.14054-0.4015,0.42161-0.40153,0.24091,0.00003,0.60229,0.0201,1.0841,0.0602,0.48183,0.0402,0.84321,0.0602,1.0841,0.0602,0.2543,0.00002,0.62906-0.02,1.1243-0.0602,0.49521-0.0401,0.86328-0.0602,1.1042-0.0602,0.24091,0.00003,0.35468,0.1071,0.3413,0.32122z"/>
   <path id="path3141" d="m499.23,529.07c-0.00002,0.99045-0.42831,1.653-1.2849,1.9876-0.57554,0.21416-4.718,0.60899-12.427,1.1845,0.17399,1.1778,0.82313,2.1816,1.9474,3.0115,1.0707,0.78968,2.2218,1.1845,3.4532,1.1845,2.1147,0,4.0554-0.6826,5.8222-2.0478,0.21413-0.17399,0.42828-0.34798,0.64244-0.52198,0.10706,0,0.17733,0.0134,0.2108,0.0402,0.0335,0.0268,0.2844,0.49188,0.75287,1.3953,0.46843,0.90344,0.70266,1.3886,0.70267,1.4555-0.00001,0.0803-0.10709,0.23423-0.32122,0.46176-1.9675,2.088-4.4904,3.1319-7.5688,3.1319-3.1052,0-5.5812-0.92686-7.4283-2.7806-1.847-1.8537-2.7706-4.3265-2.7706-7.4182,0-2.7572,0.88336-5.1596,2.6501-7.2074,1.8604-2.1281,4.1424-3.1921,6.8461-3.1922,2.5162,0.00002,4.6176,0.92353,6.304,2.7705,1.6462,1.7935,2.4694,3.9752,2.4694,6.5449zm-4.7782-1.2247c-0.00002-1.1109-0.43835-2.0946-1.315-2.9512-0.87668-0.85658-1.8638-1.2849-2.9613-1.2849-1.2314,0.00002-2.3255,0.49523-3.2825,1.4856-0.95698,0.99045-1.4355,2.1014-1.4355,3.3327,0,0.28108,0.24091,0.42161,0.72275,0.4216,1.9809,0.00001,4.3499-0.20075,7.107-0.60229,0.77628-0.10706,1.1644-0.2409,1.1644-0.40153z"/>
   <path id="path3143" d="m511.45,533.66c-0.00002,1.9943-0.79638,3.5937-2.3891,4.7983-1.4455,1.0975-3.2055,1.6463-5.2801,1.6463-0.80305,0-1.2581-0.0201-1.3652-0.0602-0.22754-0.10707-0.3413-0.43498-0.3413-0.98374,0-0.29445-0.0368-0.73613-0.11042-1.325-0.0736-0.58891-0.11042-1.0239-0.11042-1.305,0-0.17399,0.12046-0.28776,0.36137-0.3413,0.174-0.0402,0.42161-0.0402,0.74283,0,0.41491,0.0402,0.61567,0.0602,0.60229,0.0602,2.5296,0,3.7944-0.77628,3.7944-2.3289-0.00001-0.73612-0.55546-1.412-1.6664-2.0277-1.8069-0.99043-2.8442-1.5994-3.1118-1.827-1.1109-0.95027-1.6663-2.195-1.6663-3.7342,0-2.0076,0.75621-3.5736,2.2686-4.6979,1.3652-1.0038,3.0918-1.5057,5.1797-1.5057,0.18737,0.00002,0.32456,0.087,0.41156,0.26099,0.087,0.17402,0.2543,0.71608,0.50191,1.6262,0.2476,0.91015,0.37141,1.4589,0.37142,1.6463-0.00001,0.14724-0.12716,0.24093-0.38145,0.28107-0.85661,0.12047-1.7199,0.23424-2.5899,0.34129-1.0306,0.28109-1.5459,0.84323-1.5459,1.6864,0,0.60231,0.54206,1.2113,1.6262,1.827,1.6061,0.89676,2.6233,1.5459,3.0516,1.9474,1.0975,1.044,1.6462,2.3824,1.6463,4.0153z"/>
  </g>
 </g>
</svg>
